<?xml version="1.0" encoding="UTF-8" standalone="no"?>
<!-- Created with Inkscape (http://www.inkscape.org/) -->
<svg
   xmlns:svg="http://www.w3.org/2000/svg"
   xmlns="http://www.w3.org/2000/svg"
   version="1.0"
   width="900"
   height="600"
   id="svg2">
  <defs
     id="defs5" />
  <rect
     width="900"
     height="600"
     x="0"
     y="0"
     id="rect2400"
     style="fill:#ffffff;stroke:none" />
  <path
     d="M 450,119.5 C 408.048,119.5 374,153.548 374,195.5 C 374,237.452 408.048,271.5 450,271.5 C 491.952,271.5 526,237.452 526,195.5 C 526,153.548 491.952,119.5 450,119.5 z M 301.78125,197.03125 C 281.44324,226.24227 269.5,261.73351 269.5,300 C 269.5,396.40567 345.21025,475.20846 440.375,480.21875 L 439.9375,480.0625 C 439.9375,480.0625 369.5,430.5 366,291 L 366,263.96875 C 335.64823,248.48499 312.57664,224.87075 301.78125,197.03125 z M 598.21875,197.03125 C 587.42336,224.87075 564.35176,248.48499 534,263.96875 L 534,291 C 530.5,430.5 460.0625,480.0625 460.0625,480.0625 L 459.625,480.21875 C 554.78975,475.20846 630.5,396.40567 630.5,300 C 630.5,261.7335 618.55676,226.24227 598.21875,197.03125 z M 398,276.4375 L 398,277.0625 C 397,424.5625 450,480 450,480 C 450,480 503,424.5625 502,277.0625 L 502,276.4375 C 485.74353,281.00873 468.23742,283.5 450,283.5 C 431.76258,283.5 414.25647,281.00873 398,276.4375 z"
     id="path2384"
     style="fill:#6d0026;stroke:none" />
</svg>
