<?xml version="1.0" encoding="UTF-8" standalone="no" ?>
<!DOCTYPE svg PUBLIC "-//W3C//DTD SVG 1.1//EN" "http://www.w3.org/Graphics/SVG/1.1/DTD/svg11.dtd">
<svg xmlns="http://www.w3.org/2000/svg" xmlns:xlink="http://www.w3.org/1999/xlink" version="1.1" width="500" height="500" viewBox="0 0 500 500" xml:space="preserve">
<desc>Created with Fabric.js 4.6.0</desc>
<defs>
</defs>
<g transform="matrix(1 0 0 1 260.53 244.88)" id="mNIyknkJmYSG_S5BT05fi"  >
<path style="stroke: rgb(0,0,0); stroke-width: 1; stroke-dasharray: none; stroke-linecap: butt; stroke-dashoffset: 0; stroke-linejoin: miter; stroke-miterlimit: 4; fill: rgb(255,255,255); fill-opacity: 0; fill-rule: nonzero; opacity: 1;" vector-effect="non-scaling-stroke"  transform=" translate(0, 0)" d="M -47.83951 -196.94858 L -120.82426000000001 -108.71328999999999 L -120.82426000000001 -103.81132999999998 L -117.01162000000001 -99.45402999999999 L -21.69572000000001 -6.316779999999994 L -25.50836000000001 1.8531500000000065 L -124.63690000000001 93.90108000000001 L -120.82426000000001 103.16034 L -0.7262200000000121 219.71807 C -0.7262200000000121 219.71807 2.269419999999988 223.53071 8.805369999999987 217.53942 C 15.341319999999987 211.54813000000001 123.18444999999998 103.16034 123.18444999999998 103.16034 C 123.18444999999998 103.16034 126.45241999999999 99.3477 123.18444999999998 96.07973000000001 C 119.91647999999998 92.81176 25.68989999999998 -6.316779999999994 25.68989999999998 -6.316779999999994 C 25.68989999999998 -6.316779999999994 25.68989999999998 -11.218739999999993 29.502539999999982 -13.942049999999995 C 33.315179999999984 -16.665359999999996 123.18445999999999 -99.45402999999999 123.18445999999999 -99.45402999999999 C 123.18445999999999 -99.45402999999999 124.81844999999998 -103.81132999999998 123.18445999999999 -105.98997999999999 C 121.55046999999999 -108.16863 54.55700999999999 -192.04662 54.55700999999999 -192.04662 L 50.19970999999999 -192.04662 L 56.73565999999999 -175.16208999999998 L 89.41539999999999 -108.71328999999997 L 13.162679999999995 -21.022659999999973 L 13.162679999999995 -181.15337999999997 L 21.877279999999995 -196.94858999999997 L 21.877279999999995 -201.30588999999998 L 17.519979999999997 -201.30588999999998 L 8.805379999999996 -196.94858999999997 L 4.448079999999996 -216.01176999999996 L 1.7247699999999955 -220.91372999999996" stroke-linecap="round" />
</g>
<g transform="matrix(1 0 0 1 214.73 123.16)" id="4XjCMNW1lpq6WsY0_JEKM"  >
<path style="stroke: rgb(0,0,0); stroke-width: 1; stroke-dasharray: none; stroke-linecap: butt; stroke-dashoffset: 0; stroke-linejoin: miter; stroke-miterlimit: 4; fill: rgb(255,255,255); fill-opacity: 0; fill-rule: nonzero; opacity: 1;" vector-effect="non-scaling-stroke"  transform=" translate(0, 0)" d="M 45.80049 -99.6911 L 42.623290000000004 -91.02117000000001 L 42.623290000000004 -78.49394000000001 L 39.355320000000006 -72.50265 L 28.462070000000004 -78.49394000000001 L 28.462070000000004 -74.68130000000001 L 32.819370000000006 -64.33272000000001 L 36.93923000000001 -57.84315000000001 L 36.93923000000001 -41.67877000000001 L 36.93923000000001 99.69108999999997 L 35.27035000000001 99.69108999999997 L 23.78854000000001 89.00615999999998 L -9.088169999999995 52.56779999999998 L -36.7594 24.348619999999976 L -45.8005 14.211629999999975 L -41.41694 6.8143699999999745 L -36.759409999999995 -2.774670000000026 L -31.553929999999994 -8.528090000000027 L -21.690919999999995 -29.623980000000028 L -4.978589999999993 -61.40480000000002 L -0.04707999999999313 -71.26781000000003 L -1.4169399999999932 -75.92534000000002 L -1.4169399999999932 -74.68130000000002 L -0.04707999999999313 -71.26780000000002 L -4.978589999999993 -61.40479000000002" stroke-linecap="round" />
</g>
<g transform="matrix(1 0 0 1 210.05 173.83)" id="g9iHOZuztIv7TX7kiNgBU"  >
<path style="stroke: rgb(0,0,0); stroke-width: 1; stroke-dasharray: none; stroke-linecap: butt; stroke-dashoffset: 0; stroke-linejoin: miter; stroke-miterlimit: 4; fill: rgb(255,255,255); fill-opacity: 0; fill-rule: nonzero; opacity: 1;" vector-effect="non-scaling-stroke"  transform=" translate(0, 0)" d="M -33.17466 -50.67497 L -41.619870000000006 -37.01127 L -10.434940000000005 -3.312640000000002 L 16.688349999999996 26.2764 L 33.94861999999999 44.08462 L 39.950979999999994 49.516130000000004 L 41.619859999999996 50.674980000000005" stroke-linecap="round" />
</g>
<g transform="matrix(1 0 0 1 213.01 344)" id="ZcLsRjsJBouCV9o02xQZi"  >
<path style="stroke: rgb(0,0,0); stroke-width: 1; stroke-dasharray: none; stroke-linecap: butt; stroke-dashoffset: 0; stroke-linejoin: miter; stroke-miterlimit: 4; fill: rgb(255,255,255); fill-opacity: 0; fill-rule: nonzero; opacity: 1;" vector-effect="non-scaling-stroke"  transform=" translate(0, 0)" d="M 39.15411 -80.86132 L 39.15411 80.86132999999998 L -39.15411 -0.5085300000000217 z" stroke-linecap="round" />
</g>
<g transform="matrix(1 0 0 1 311.81 343.06)" id="oVMhS5IhAP4rAcYj53jXa"  >
<path style="stroke: rgb(0,0,0); stroke-width: 1; stroke-dasharray: none; stroke-linecap: butt; stroke-dashoffset: 0; stroke-linejoin: miter; stroke-miterlimit: 4; fill: rgb(255,255,255); fill-opacity: 0; fill-rule: nonzero; opacity: 1;" vector-effect="non-scaling-stroke"  transform=" translate(0, 0)" d="M -37.12329 -80.42639 L 37.12329 -2.3133299999999934 L -37.12329 80.4264 z" stroke-linecap="round" />
</g>
</svg>